<?xml version="1.0" encoding="UTF-8" standalone="no"?>
<svg xmlns="http://www.w3.org/2000/svg" viewBox="0 0 48 48" width="48px" height="48px">
  <path fill="#FF9900" d="M27.4,24.6c-1.5,1.1-3.7,1.7-5.6,1.7c-2.6,0-5-1-6.8-2.7c-0.1-0.1-0.1-0.3,0-0.4c0.1-0.1,0.3-0.1,0.4,0 c1.7,1.5,3.9,2.4,6.4,2.4c1.7,0,3.6-0.5,5.2-1.5c0.2-0.1,0.4,0,0.5,0.2C27.6,24.4,27.5,24.5,27.4,24.6z"/>
  <path fill="#FF9900" d="M28.9,22.8c-0.2-0.3-1.5-0.3-2.3-0.2c-0.2,0-0.2-0.1-0.1-0.3c1.1-0.8,3-0.6,3.2-0.3c0.2,0.3-0.5,2.3-1.3,3.3 c-0.2,0.2-0.4,0.1-0.3-0.1C28.4,24.5,29.1,23.1,28.9,22.8z"/>
  <path fill="#FF9900" d="M34.9,28.5c0,0.2-0.1,0.3-0.3,0.3c-1.7,0.2-3.5,0.4-5.2,0.4c-2.5,0-4.8-0.6-6.7-1.8c-0.2-0.1-0.2-0.4,0-0.5 c4.9-2.8,8.5-4.3,13.9-7c0.2-0.1,0.4,0.1,0.2,0.3C35.7,22.4,34.9,25.4,34.9,28.5z"/>
  <path fill="#FF9900" d="M13.1,29.1c0-0.2,0.2-0.3,0.3-0.1c0.8,1.1,1.6,2,2.5,2.7c3.8,3.1,8.2,4.8,13,4.8c3.6,0,7.7-0.9,10.7-2.8 c0.1-0.1,0.3,0,0.2,0.1c-0.3,0.4-1.9,1.7-2.9,2.3c-2,1.3-4.4,2.2-6.7,2.6c-0.7,0.1-1.4,0.2-2.2,0.2c-4.3,0.2-8.3-1-11.7-3.5 C14.9,34.3,13.1,31.9,13.1,29.1z"/>
  <path fill="#FF9900" d="M23.5,12.8c0,0.6,0,1.1,0,1.7c0,1.7-0.1,3.3-0.2,5c0,0.3,0.2,0.5,0.4,0.5c0.7,0,2.2-0.3,2.9-0.6 c0.2-0.1,0.2-0.3,0.2-0.4c-0.2-1.1-0.3-2.2-0.3-3.3c0-0.9,0.1-1.8,0.2-2.6c0-0.2-0.1-0.4-0.3-0.4C25.6,12.7,24.5,12.7,23.5,12.8z"/>
</svg> 